# xmcd CD database file
#
# Track frame offsets:
#	150
#	26919
#	50885
#	73449
#	97302
#	122828
#	140308
#	168888
#	194412
#	218432
#	239945
#	266289
#	288696
#
# Disc length: 4262 seconds
#
# Revision: 0
# Processed by: cddbd v1.5.2PL0 Copyright (c) Steve Scherf et al.
# Submitted via: CDex 1.70beta2
#
DISCID=d910a40d
DTITLE=Blank and Jones by Marcus Loeber - Relax jazzed 2
DYEAR=2014
DGENRE=Jazz
TTITLE0=Lullaby (Les Yeux Fermes)
TTITLE1=Balearic Blue
TTITLE2=Sunny Side Up
TTITLE3=Le Grand Blue
TTITLE4=Feel Good
TTITLE5=After Love
TTITLE6=Breezin'
TTITLE7=Warm Weather
TTITLE8=Beyond Time
TTITLE9=J'en Reste La
TTITLE10=From N'ney With Love
TTITLE11=Entspannt am Strand
TTITLE12=Unkown Treasure
EXTD=YEAR: 2014
EXTT0=
EXTT1=
EXTT2=
EXTT3=
EXTT4=
EXTT5=
EXTT6=
EXTT7=
EXTT8=
EXTT9=
EXTT10=
EXTT11=
EXTT12=
PLAYORDER=
